<?xml version='1.0' encoding='UTF-8'?>
<svg width="90mm" height="90mm" version="1.1" viewBox="0 0 90 90" xmlns="http://www.w3.org/2000/svg"><path d="M8,8H10V10H8zM10,8H12V10H10zM12,8H14V10H12zM14,8H16V10H14zM16,8H18V10H16zM18,8H20V10H18zM20,8H22V10H20zM28,8H30V10H28zM32,8H34V10H32zM34,8H36V10H34zM36,8H38V10H36zM38,8H40V10H38zM40,8H42V10H40zM42,8H44V10H42zM44,8H46V10H44zM50,8H52V10H50zM52,8H54V10H52zM54,8H56V10H54zM58,8H60V10H58zM60,8H62V10H60zM62,8H64V10H62zM64,8H66V10H64zM68,8H70V10H68zM70,8H72V10H70zM72,8H74V10H72zM74,8H76V10H74zM76,8H78V10H76zM78,8H80V10H78zM80,8H82V10H80zM8,10H10V12H8zM20,10H22V12H20zM24,10H26V12H24zM32,10H34V12H32zM42,10H44V12H42zM48,10H50V12H48zM54,10H56V12H54zM56,10H58V12H56zM58,10H60V12H58zM60,10H62V12H60zM64,10H66V12H64zM68,10H70V12H68zM80,10H82V12H80zM8,12H10V14H8zM12,12H14V14H12zM14,12H16V14H14zM16,12H18V14H16zM20,12H22V14H20zM26,12H28V14H26zM38,12H40V14H38zM40,12H42V14H40zM44,12H46V14H44zM48,12H50V14H48zM50,12H52V14H50zM52,12H54V14H52zM54,12H56V14H54zM60,12H62V14H60zM68,12H70V14H68zM72,12H74V14H72zM74,12H76V14H74zM76,12H78V14H76zM80,12H82V14H80zM8,14H10V16H8zM12,14H14V16H12zM14,14H16V16H14zM16,14H18V16H16zM20,14H22V16H20zM26,14H28V16H26zM30,14H32V16H30zM36,14H38V16H36zM38,14H40V16H38zM42,14H44V16H42zM46,14H48V16H46zM48,14H50V16H48zM50,14H52V16H50zM52,14H54V16H52zM54,14H56V16H54zM56,14H58V16H56zM58,14H60V16H58zM60,14H62V16H60zM64,14H66V16H64zM68,14H70V16H68zM72,14H74V16H72zM74,14H76V16H74zM76,14H78V16H76zM80,14H82V16H80zM8,16H10V18H8zM12,16H14V18H12zM14,16H16V18H14zM16,16H18V18H16zM20,16H22V18H20zM28,16H30V18H28zM32,16H34V18H32zM38,16H40V18H38zM40,16H42V18H40zM42,16H44V18H42zM48,16H50V18H48zM50,16H52V18H50zM52,16H54V18H52zM56,16H58V18H56zM58,16H60V18H58zM60,16H62V18H60zM62,16H64V18H62zM68,16H70V18H68zM72,16H74V18H72zM74,16H76V18H74zM76,16H78V18H76zM80,16H82V18H80zM8,18H10V20H8zM20,18H22V20H20zM24,18H26V20H24zM26,18H28V20H26zM36,18H38V20H36zM42,18H44V20H42zM46,18H48V20H46zM48,18H50V20H48zM54,18H56V20H54zM56,18H58V20H56zM58,18H60V20H58zM60,18H62V20H60zM64,18H66V20H64zM68,18H70V20H68zM80,18H82V20H80zM8,20H10V22H8zM10,20H12V22H10zM12,20H14V22H12zM14,20H16V22H14zM16,20H18V22H16zM18,20H20V22H18zM20,20H22V22H20zM24,20H26V22H24zM28,20H30V22H28zM32,20H34V22H32zM36,20H38V22H36zM40,20H42V22H40zM44,20H46V22H44zM48,20H50V22H48zM52,20H54V22H52zM56,20H58V22H56zM60,20H62V22H60zM64,20H66V22H64zM68,20H70V22H68zM70,20H72V22H70zM72,20H74V22H72zM74,20H76V22H74zM76,20H78V22H76zM78,20H80V22H78zM80,20H82V22H80zM24,22H26V24H24zM32,22H34V24H32zM34,22H36V24H34zM36,22H38V24H36zM42,22H44V24H42zM46,22H48V24H46zM48,22H50V24H48zM56,22H58V24H56zM60,22H62V24H60zM16,24H18V26H16zM18,24H20V26H18zM20,24H22V26H20zM22,24H24V26H22zM34,24H36V26H34zM36,24H38V26H36zM38,24H40V26H38zM40,24H42V26H40zM44,24H46V26H44zM48,24H50V26H48zM50,24H52V26H50zM58,24H60V26H58zM60,24H62V26H60zM62,24H64V26H62zM68,24H70V26H68zM70,24H72V26H70zM78,24H80V26H78zM10,26H12V28H10zM12,26H14V28H12zM16,26H18V28H16zM18,26H20V28H18zM26,26H28V28H26zM36,26H38V28H36zM42,26H44V28H42zM44,26H46V28H44zM50,26H52V28H50zM52,26H54V28H52zM56,26H58V28H56zM64,26H66V28H64zM68,26H70V28H68zM70,26H72V28H70zM72,26H74V28H72zM10,28H12V30H10zM16,28H18V30H16zM18,28H20V30H18zM20,28H22V30H20zM22,28H24V30H22zM24,28H26V30H24zM26,28H28V30H26zM30,28H32V30H30zM36,28H38V30H36zM38,28H40V30H38zM44,28H46V30H44zM46,28H48V30H46zM50,28H52V30H50zM52,28H54V30H52zM58,28H60V30H58zM60,28H62V30H60zM64,28H66V30H64zM66,28H68V30H66zM74,28H76V30H74zM76,28H78V30H76zM8,30H10V32H8zM18,30H20V32H18zM24,30H26V32H24zM26,30H28V32H26zM28,30H30V32H28zM30,30H32V32H30zM38,30H40V32H38zM46,30H48V32H46zM54,30H56V32H54zM56,30H58V32H56zM60,30H62V32H60zM66,30H68V32H66zM70,30H72V32H70zM76,30H78V32H76zM78,30H80V32H78zM80,30H82V32H80zM8,32H10V34H8zM10,32H12V34H10zM12,32H14V34H12zM14,32H16V34H14zM20,32H22V34H20zM22,32H24V34H22zM24,32H26V34H24zM26,32H28V34H26zM30,32H32V34H30zM32,32H34V34H32zM34,32H36V34H34zM36,32H38V34H36zM44,32H46V34H44zM46,32H48V34H46zM50,32H52V34H50zM56,32H58V34H56zM62,32H64V34H62zM66,32H68V34H66zM68,32H70V34H68zM70,32H72V34H70zM76,32H78V34H76zM80,32H82V34H80zM12,34H14V36H12zM14,34H16V36H14zM18,34H20V36H18zM24,34H26V36H24zM30,34H32V36H30zM36,34H38V36H36zM40,34H42V36H40zM42,34H44V36H42zM46,34H48V36H46zM54,34H56V36H54zM56,34H58V36H56zM58,34H60V36H58zM62,34H64V36H62zM64,34H66V36H64zM66,34H68V36H66zM72,34H74V36H72zM76,34H78V36H76zM8,36H10V38H8zM12,36H14V38H12zM16,36H18V38H16zM18,36H20V38H18zM20,36H22V38H20zM22,36H24V38H22zM24,36H26V38H24zM30,36H32V38H30zM34,36H36V38H34zM36,36H38V38H36zM38,36H40V38H38zM40,36H42V38H40zM44,36H46V38H44zM46,36H48V38H46zM60,36H62V38H60zM62,36H64V38H62zM70,36H72V38H70zM74,36H76V38H74zM76,36H78V38H76zM8,38H10V40H8zM10,38H12V40H10zM12,38H14V40H12zM14,38H16V40H14zM16,38H18V40H16zM24,38H26V40H24zM26,38H28V40H26zM28,38H30V40H28zM30,38H32V40H30zM34,38H36V40H34zM38,38H40V40H38zM46,38H48V40H46zM50,38H52V40H50zM52,38H54V40H52zM54,38H56V40H54zM56,38H58V40H56zM62,38H64V40H62zM66,38H68V40H66zM76,38H78V40H76zM80,38H82V40H80zM12,40H14V42H12zM14,40H16V42H14zM20,40H22V42H20zM24,40H26V42H24zM30,40H32V42H30zM36,40H38V42H36zM38,40H40V42H38zM48,40H50V42H48zM52,40H54V42H52zM54,40H56V42H54zM60,40H62V42H60zM66,40H68V42H66zM68,40H70V42H68zM74,40H76V42H74zM76,40H78V42H76zM78,40H80V42H78zM18,42H20V44H18zM22,42H24V44H22zM24,42H26V44H24zM30,42H32V44H30zM34,42H36V44H34zM38,42H40V44H38zM40,42H42V44H40zM44,42H46V44H44zM46,42H48V44H46zM50,42H52V44H50zM52,42H54V44H52zM60,42H62V44H60zM62,42H64V44H62zM64,42H66V44H64zM72,42H74V44H72zM76,42H78V44H76zM8,44H10V46H8zM18,44H20V46H18zM20,44H22V46H20zM22,44H24V46H22zM26,44H28V46H26zM30,44H32V46H30zM32,44H34V46H32zM34,44H36V46H34zM42,44H44V46H42zM52,44H54V46H52zM54,44H56V46H54zM60,44H62V46H60zM62,44H64V46H62zM68,44H70V46H68zM70,44H72V46H70zM72,44H74V46H72zM74,44H76V46H74zM8,46H10V48H8zM10,46H12V48H10zM12,46H14V48H12zM18,46H20V48H18zM22,46H24V48H22zM30,46H32V48H30zM42,46H44V48H42zM46,46H48V48H46zM48,46H50V48H48zM52,46H54V48H52zM56,46H58V48H56zM66,46H68V48H66zM68,46H70V48H68zM76,46H78V48H76zM8,48H10V50H8zM18,48H20V50H18zM20,48H22V50H20zM24,48H26V50H24zM26,48H28V50H26zM32,48H34V50H32zM36,48H38V50H36zM42,48H44V50H42zM46,48H48V50H46zM48,48H50V50H48zM50,48H52V50H50zM56,48H58V50H56zM60,48H62V50H60zM62,48H64V50H62zM66,48H68V50H66zM68,48H70V50H68zM76,48H78V50H76zM78,48H80V50H78zM80,48H82V50H80zM10,50H12V52H10zM12,50H14V52H12zM16,50H18V52H16zM24,50H26V52H24zM36,50H38V52H36zM40,50H42V52H40zM42,50H44V52H42zM44,50H46V52H44zM46,50H48V52H46zM50,50H52V52H50zM52,50H54V52H52zM54,50H56V52H54zM60,50H62V52H60zM62,50H64V52H62zM72,50H74V52H72zM74,50H76V52H74zM78,50H80V52H78zM12,52H14V54H12zM14,52H16V54H14zM16,52H18V54H16zM20,52H22V54H20zM22,52H24V54H22zM24,52H26V54H24zM28,52H30V54H28zM30,52H32V54H30zM32,52H34V54H32zM36,52H38V54H36zM38,52H40V54H38zM40,52H42V54H40zM42,52H44V54H42zM48,52H50V54H48zM50,52H52V54H50zM52,52H54V54H52zM54,52H56V54H54zM58,52H60V54H58zM60,52H62V54H60zM62,52H64V54H62zM64,52H66V54H64zM68,52H70V54H68zM12,54H14V56H12zM14,54H16V56H14zM18,54H20V56H18zM34,54H36V56H34zM44,54H46V56H44zM52,54H54V56H52zM54,54H56V56H54zM56,54H58V56H56zM58,54H60V56H58zM64,54H66V56H64zM66,54H68V56H66zM68,54H70V56H68zM70,54H72V56H70zM74,54H76V56H74zM76,54H78V56H76zM8,56H10V58H8zM10,56H12V58H10zM12,56H14V58H12zM16,56H18V58H16zM18,56H20V58H18zM20,56H22V58H20zM24,56H26V58H24zM26,56H28V58H26zM30,56H32V58H30zM40,56H42V58H40zM42,56H44V58H42zM44,56H46V58H44zM46,56H48V58H46zM52,56H54V58H52zM56,56H58V58H56zM58,56H60V58H58zM62,56H64V58H62zM64,56H66V58H64zM66,56H68V58H66zM76,56H78V58H76zM78,56H80V58H78zM80,56H82V58H80zM8,58H10V60H8zM10,58H12V60H10zM24,58H26V60H24zM32,58H34V60H32zM36,58H38V60H36zM38,58H40V60H38zM40,58H42V60H40zM42,58H44V60H42zM44,58H46V60H44zM46,58H48V60H46zM48,58H50V60H48zM50,58H52V60H50zM52,58H54V60H52zM58,58H60V60H58zM60,58H62V60H60zM68,58H70V60H68zM72,58H74V60H72zM74,58H76V60H74zM76,58H78V60H76zM78,58H80V60H78zM12,60H14V62H12zM14,60H16V62H14zM20,60H22V62H20zM24,60H26V62H24zM30,60H32V62H30zM38,60H40V62H38zM44,60H46V62H44zM48,60H50V62H48zM50,60H52V62H50zM52,60H54V62H52zM62,60H64V62H62zM66,60H68V62H66zM72,60H74V62H72zM22,62H24V64H22zM26,62H28V64H26zM30,62H32V64H30zM34,62H36V64H34zM38,62H40V64H38zM40,62H42V64H40zM48,62H50V64H48zM50,62H52V64H50zM56,62H58V64H56zM62,62H64V64H62zM64,62H66V64H64zM68,62H70V64H68zM76,62H78V64H76zM80,62H82V64H80zM8,64H10V66H8zM10,64H12V66H10zM16,64H18V66H16zM18,64H20V66H18zM20,64H22V66H20zM24,64H26V66H24zM26,64H28V66H26zM28,64H30V66H28zM34,64H36V66H34zM36,64H38V66H36zM38,64H40V66H38zM40,64H42V66H40zM42,64H44V66H42zM44,64H46V66H44zM46,64H48V66H46zM48,64H50V66H48zM50,64H52V66H50zM54,64H56V66H54zM56,64H58V66H56zM64,64H66V66H64zM66,64H68V66H66zM68,64H70V66H68zM70,64H72V66H70zM72,64H74V66H72zM74,64H76V66H74zM76,64H78V66H76zM78,64H80V66H78zM24,66H26V68H24zM26,66H28V68H26zM34,66H36V68H34zM36,66H38V68H36zM38,66H40V68H38zM42,66H44V68H42zM44,66H46V68H44zM48,66H50V68H48zM52,66H54V68H52zM54,66H56V68H54zM62,66H64V68H62zM64,66H66V68H64zM72,66H74V68H72zM74,66H76V68H74zM8,68H10V70H8zM10,68H12V70H10zM12,68H14V70H12zM14,68H16V70H14zM16,68H18V70H16zM18,68H20V70H18zM20,68H22V70H20zM24,68H26V70H24zM26,68H28V70H26zM32,68H34V70H32zM46,68H48V70H46zM48,68H50V70H48zM50,68H52V70H50zM52,68H54V70H52zM54,68H56V70H54zM58,68H60V70H58zM60,68H62V70H60zM64,68H66V70H64zM68,68H70V70H68zM72,68H74V70H72zM74,68H76V70H74zM76,68H78V70H76zM8,70H10V72H8zM20,70H22V72H20zM24,70H26V72H24zM26,70H28V72H26zM30,70H32V72H30zM32,70H34V72H32zM36,70H38V72H36zM40,70H42V72H40zM42,70H44V72H42zM44,70H46V72H44zM46,70H48V72H46zM48,70H50V72H48zM50,70H52V72H50zM64,70H66V72H64zM72,70H74V72H72zM76,70H78V72H76zM78,70H80V72H78zM80,70H82V72H80zM8,72H10V74H8zM12,72H14V74H12zM14,72H16V74H14zM16,72H18V74H16zM20,72H22V74H20zM24,72H26V74H24zM28,72H30V74H28zM30,72H32V74H30zM32,72H34V74H32zM34,72H36V74H34zM40,72H42V74H40zM44,72H46V74H44zM50,72H52V74H50zM52,72H54V74H52zM64,72H66V74H64zM66,72H68V74H66zM68,72H70V74H68zM70,72H72V74H70zM72,72H74V74H72zM74,72H76V74H74zM76,72H78V74H76zM80,72H82V74H80zM8,74H10V76H8zM12,74H14V76H12zM14,74H16V76H14zM16,74H18V76H16zM20,74H22V76H20zM26,74H28V76H26zM30,74H32V76H30zM32,74H34V76H32zM36,74H38V76H36zM42,74H44V76H42zM48,74H50V76H48zM50,74H52V76H50zM56,74H58V76H56zM60,74H62V76H60zM64,74H66V76H64zM68,74H70V76H68zM70,74H72V76H70zM74,74H76V76H74zM8,76H10V78H8zM12,76H14V78H12zM14,76H16V78H14zM16,76H18V78H16zM20,76H22V78H20zM28,76H30V78H28zM34,76H36V78H34zM36,76H38V78H36zM38,76H40V78H38zM40,76H42V78H40zM44,76H46V78H44zM54,76H56V78H54zM56,76H58V78H56zM60,76H62V78H60zM68,76H70V78H68zM70,76H72V78H70zM76,76H78V78H76zM78,76H80V78H78zM8,78H10V80H8zM20,78H22V80H20zM30,78H32V80H30zM34,78H36V80H34zM36,78H38V80H36zM38,78H40V80H38zM40,78H42V80H40zM44,78H46V80H44zM46,78H48V80H46zM48,78H50V80H48zM54,78H56V80H54zM60,78H62V80H60zM62,78H64V80H62zM66,78H68V80H66zM68,78H70V80H68zM70,78H72V80H70zM72,78H74V80H72zM76,78H78V80H76zM78,78H80V80H78zM8,80H10V82H8zM10,80H12V82H10zM12,80H14V82H12zM14,80H16V82H14zM16,80H18V82H16zM18,80H20V82H18zM20,80H22V82H20zM26,80H28V82H26zM28,80H30V82H28zM30,80H32V82H30zM32,80H34V82H32zM34,80H36V82H34zM36,80H38V82H36zM40,80H42V82H40zM42,80H44V82H42zM46,80H48V82H46zM62,80H64V82H62zM68,80H70V82H68zM76,80H78V82H76zM78,80H80V82H78zM80,80H82V82H80z" id="qr-path" fill="#000000" fill-opacity="1" fill-rule="nonzero" stroke="none"/></svg>